<svg xmlns="http://www.w3.org/2000/svg" viewBox="0 0 32 32">
  <rect width="32" height="32" rx="6" fill="#0a0a0a"/>
  <g transform="translate(4, 3) scale(1.1)">
    <path d="M12 2L4 6v6c0 5.55 3.84 10.74 8 12 4.16-1.26 8-6.45 8-12V6l-8-4z" fill="#3b82f6" opacity="0.15"/>
    <path d="M12 5.5L7 8v4c0 3.5 2.5 6.5 5 7.5 2.5-1 5-4 5-7.5V8l-5-2.5z" stroke="#60a5fa" stroke-width="1.5" fill="none"/>
    <circle cx="12" cy="10" r="1.5" fill="#60a5fa"/>
    <circle cx="9" cy="14" r="1.5" fill="#60a5fa"/>
    <circle cx="15" cy="14" r="1.5" fill="#60a5fa"/>
    <path d="M12 10L9 14M12 10L15 14M9 14H15" stroke="#60a5fa" stroke-width="1.2"/>
  </g>
</svg>
